<svg xmlns="http://www.w3.org/2000/svg" xmlns:xlink="http://www.w3.org/1999/xlink" width="500" zoomAndPan="magnify" viewBox="0 0 375 149.999998" height="200" preserveAspectRatio="xMidYMid meet" version="1.0"><defs><g/></defs><path stroke-linecap="butt" transform="matrix(0, 0.75, -0.75, 0, 232.253661, 26.8125)" fill="none" stroke-linejoin="miter" d="M -0.00000058125 2.499673 L 128.515632 2.499673 " stroke="#002c55" stroke-width="5" stroke-opacity="1" stroke-miterlimit="4"/><path fill="#c89116" d="M 63.660156 27.730469 L 66.914062 27.730469 L 67.1875 112.789062 L 71.964844 104.402344 L 71.964844 46.492188 L 73.226562 45.765625 L 76.5625 52.449219 L 76.5625 104.660156 L 66.558594 122.257812 L 63.304688 122.257812 L 62.851562 38.285156 L 57.71875 47.398438 L 57.71875 105.113281 L 53.929688 101.503906 L 53.476562 46.136719 Z M 63.660156 27.730469 " fill-opacity="1" fill-rule="nonzero"/><path fill="#c89116" d="M 77.746094 62.101562 C 80.269531 64.269531 80.820312 66.113281 80.902344 67.328125 C 81.355469 74.679688 65.390625 81.769531 52.132812 87.710938 C 47.097656 89.960938 41.820312 92.050781 41.933594 92.40625 C 42.078125 92.792969 48.683594 90.738281 49.414062 90.511719 C 53.378906 89.265625 86.957031 78.839844 86.035156 68.316406 C 85.871094 66.472656 84.640625 63.734375 78.992188 60.738281 L 77.726562 62.101562 Z M 77.746094 62.101562 " fill-opacity="1" fill-rule="nonzero"/><path fill="#c89116" d="M 77.746094 62.101562 C 82.730469 66.324219 81.339844 70.46875 76.855469 74.339844 C 73.128906 77.511719 68.757812 79.828125 64.421875 82.027344 C 57.863281 85.28125 51.128906 88.179688 44.410156 91.09375 C 43.601562 91.484375 42.695312 91.808594 41.984375 92.339844 C 41.964844 92.375 41.949219 92.390625 41.964844 92.390625 C 41.984375 92.390625 42.03125 92.40625 42.0625 92.40625 C 43.503906 92.277344 44.878906 91.773438 46.273438 91.402344 C 54.933594 88.84375 86.210938 78.871094 86.015625 68.542969 C 85.921875 66.035156 83.992188 64.074219 82.101562 62.667969 C 81.128906 61.9375 80.042969 61.304688 79.007812 60.722656 C 79.007812 60.722656 77.746094 62.066406 77.746094 62.066406 Z M 77.726562 62.101562 C 77.726562 62.101562 78.992188 60.722656 78.992188 60.738281 C 80.335938 61.46875 81.644531 62.261719 82.828125 63.234375 C 84.996094 64.964844 86.730469 67.492188 85.808594 70.371094 C 82.535156 80.003906 55.890625 88.632812 46.289062 91.484375 C 45.105469 91.824219 43.941406 92.164062 42.742188 92.40625 C 42.515625 92.4375 42.289062 92.488281 42.046875 92.488281 C 42.015625 92.488281 41.964844 92.488281 41.917969 92.453125 C 41.917969 92.453125 41.902344 92.4375 41.886719 92.421875 C 41.886719 92.375 41.886719 92.339844 41.917969 92.308594 C 42.144531 92.097656 42.4375 91.96875 42.710938 91.824219 C 43.261719 91.546875 43.8125 91.304688 44.378906 91.046875 C 51.097656 88.132812 57.832031 85.234375 64.40625 81.996094 C 68.742188 79.792969 73.113281 77.496094 76.839844 74.324219 C 81.324219 70.453125 82.714844 66.324219 77.726562 62.101562 Z M 77.726562 62.101562 " fill-opacity="1" fill-rule="nonzero"/><g fill="#002c55" fill-opacity="1"><g transform="translate(95.732376, 68.192124)"><g><path d="M 21.625 0 L 1.109375 0 L 1.109375 -3.796875 L 14.9375 -21.375 L 2.484375 -21.375 L 2.484375 -25.5625 L 20.875 -25.5625 L 20.875 -21.84375 L 7.0625 -4.1875 L 21.625 -4.1875 Z M 21.625 0 "/></g></g></g><g fill="#002c55" fill-opacity="1"><g transform="translate(119.800916, 68.192124)"><g><path d="M 10.625 0.359375 C 7.675781 0.359375 5.410156 -0.507812 3.828125 -2.25 C 2.242188 -4 1.453125 -6.550781 1.453125 -9.90625 C 1.453125 -13.144531 2.253906 -15.632812 3.859375 -17.375 C 5.472656 -19.125 7.753906 -20 10.703125 -20 C 13.523438 -20 15.675781 -19.0625 17.15625 -17.1875 C 18.644531 -15.320312 19.390625 -12.585938 19.390625 -8.984375 L 19.390625 -8.828125 L 6.796875 -8.828125 C 6.796875 -6.921875 7.148438 -5.476562 7.859375 -4.5 C 8.566406 -3.53125 9.578125 -3.046875 10.890625 -3.046875 C 12.691406 -3.046875 13.828125 -3.828125 14.296875 -5.390625 L 19.109375 -4.96875 C 17.710938 -1.414062 14.882812 0.359375 10.625 0.359375 Z M 10.625 -16.78125 C 9.425781 -16.78125 8.503906 -16.363281 7.859375 -15.53125 C 7.210938 -14.695312 6.875 -13.53125 6.84375 -12.03125 L 14.453125 -12.03125 C 14.359375 -13.613281 13.976562 -14.800781 13.3125 -15.59375 C 12.644531 -16.382812 11.75 -16.78125 10.625 -16.78125 Z M 10.625 -16.78125 "/></g></g></g><g fill="#002c55" fill-opacity="1"><g transform="translate(141.837768, 68.192124)"><g><path d="M 15.3125 0 L 15.3125 -11.015625 C 15.3125 -14.460938 14.144531 -16.1875 11.8125 -16.1875 C 10.570312 -16.1875 9.570312 -15.65625 8.8125 -14.59375 C 8.0625 -13.539062 7.6875 -12.179688 7.6875 -10.515625 L 7.6875 0 L 2.59375 0 L 2.59375 -15.234375 C 2.59375 -16.285156 2.578125 -17.144531 2.546875 -17.8125 C 2.515625 -18.488281 2.484375 -19.09375 2.453125 -19.625 L 7.3125 -19.625 C 7.34375 -19.394531 7.390625 -18.78125 7.453125 -17.78125 C 7.515625 -16.789062 7.546875 -16.109375 7.546875 -15.734375 L 7.625 -15.734375 C 8.3125 -17.234375 9.175781 -18.320312 10.21875 -19 C 11.257812 -19.675781 12.5 -20.015625 13.9375 -20.015625 C 16.007812 -20.015625 17.601562 -19.375 18.71875 -18.09375 C 19.832031 -16.8125 20.390625 -14.9375 20.390625 -12.46875 L 20.390625 0 Z M 15.3125 0 "/></g></g></g><g fill="#002c55" fill-opacity="1"><g transform="translate(165.906304, 68.192124)"><g><path d="M 2.59375 -23.171875 L 2.59375 -26.921875 L 7.6875 -26.921875 L 7.6875 -23.171875 Z M 2.59375 0 L 2.59375 -19.625 L 7.6875 -19.625 L 7.6875 0 Z M 2.59375 0 "/></g></g></g><g fill="#002c55" fill-opacity="1"><g transform="translate(177.603316, 68.192124)"><g><path d="M 7.625 0.328125 C 6.125 0.328125 4.96875 -0.078125 4.15625 -0.890625 C 3.34375 -1.710938 2.9375 -2.953125 2.9375 -4.609375 L 2.9375 -16.1875 L 0.453125 -16.1875 L 0.453125 -19.625 L 3.1875 -19.625 L 4.796875 -24.234375 L 7.984375 -24.234375 L 7.984375 -19.625 L 11.703125 -19.625 L 11.703125 -16.1875 L 7.984375 -16.1875 L 7.984375 -5.984375 C 7.984375 -5.023438 8.164062 -4.316406 8.53125 -3.859375 C 8.894531 -3.410156 9.457031 -3.1875 10.21875 -3.1875 C 10.613281 -3.1875 11.179688 -3.273438 11.921875 -3.453125 L 11.921875 -0.296875 C 10.660156 0.117188 9.226562 0.328125 7.625 0.328125 Z M 7.625 0.328125 "/></g></g></g><g fill="#002c55" fill-opacity="1"><g transform="translate(191.350155, 68.192124)"><g><path d="M 7.625 -15.71875 C 8.3125 -17.21875 9.175781 -18.304688 10.21875 -18.984375 C 11.257812 -19.660156 12.5 -20 13.9375 -20 C 16.007812 -20 17.601562 -19.351562 18.71875 -18.0625 C 19.832031 -16.78125 20.390625 -14.910156 20.390625 -12.453125 L 20.390625 0 L 15.3125 0 L 15.3125 -11 C 15.3125 -14.445312 14.144531 -16.171875 11.8125 -16.171875 C 10.570312 -16.171875 9.570312 -15.640625 8.8125 -14.578125 C 8.0625 -13.515625 7.6875 -12.15625 7.6875 -10.5 L 7.6875 0 L 2.59375 0 L 2.59375 -26.921875 L 7.6875 -26.921875 L 7.6875 -19.578125 C 7.6875 -18.253906 7.640625 -16.96875 7.546875 -15.71875 Z M 7.625 -15.71875 "/></g></g></g><g fill="#002c55" fill-opacity="1"><g transform="translate(95.692486, 105.635505)"><g><path d="M 20.046875 0 L 14.109375 -9.703125 L 7.84375 -9.703125 L 7.84375 0 L 2.484375 0 L 2.484375 -25.5625 L 15.265625 -25.5625 C 18.304688 -25.5625 20.65625 -24.90625 22.3125 -23.59375 C 23.96875 -22.28125 24.796875 -20.394531 24.796875 -17.9375 C 24.796875 -16.15625 24.285156 -14.613281 23.265625 -13.3125 C 22.253906 -12.007812 20.882812 -11.148438 19.15625 -10.734375 L 26.078125 0 Z M 19.40625 -17.71875 C 19.40625 -20.175781 17.835938 -21.40625 14.703125 -21.40625 L 7.84375 -21.40625 L 7.84375 -13.859375 L 14.84375 -13.859375 C 16.34375 -13.859375 17.476562 -14.195312 18.25 -14.875 C 19.019531 -15.550781 19.40625 -16.5 19.40625 -17.71875 Z M 19.40625 -17.71875 "/></g></g></g><g fill="#002c55" fill-opacity="1"><g transform="translate(123.89696, 105.635505)"><g><path d="M 10.625 0.359375 C 7.675781 0.359375 5.410156 -0.507812 3.828125 -2.25 C 2.242188 -4 1.453125 -6.550781 1.453125 -9.90625 C 1.453125 -13.144531 2.253906 -15.632812 3.859375 -17.375 C 5.472656 -19.125 7.753906 -20 10.703125 -20 C 13.523438 -20 15.675781 -19.0625 17.15625 -17.1875 C 18.644531 -15.320312 19.390625 -12.585938 19.390625 -8.984375 L 19.390625 -8.828125 L 6.796875 -8.828125 C 6.796875 -6.921875 7.148438 -5.476562 7.859375 -4.5 C 8.566406 -3.53125 9.578125 -3.046875 10.890625 -3.046875 C 12.691406 -3.046875 13.828125 -3.828125 14.296875 -5.390625 L 19.109375 -4.96875 C 17.710938 -1.414062 14.882812 0.359375 10.625 0.359375 Z M 10.625 -16.78125 C 9.425781 -16.78125 8.503906 -16.363281 7.859375 -15.53125 C 7.210938 -14.695312 6.875 -13.53125 6.84375 -12.03125 L 14.453125 -12.03125 C 14.359375 -13.613281 13.976562 -14.800781 13.3125 -15.59375 C 12.644531 -16.382812 11.75 -16.78125 10.625 -16.78125 Z M 10.625 -16.78125 "/></g></g></g><g fill="#002c55" fill-opacity="1"><g transform="translate(145.933813, 105.635505)"><g><path d="M 7.125 0.359375 C 5.226562 0.359375 3.75 -0.15625 2.6875 -1.1875 C 1.625 -2.21875 1.09375 -3.671875 1.09375 -5.546875 C 1.09375 -7.578125 1.753906 -9.125 3.078125 -10.1875 C 4.398438 -11.257812 6.316406 -11.804688 8.828125 -11.828125 L 13.0625 -11.90625 L 13.0625 -12.90625 C 13.0625 -14.1875 12.835938 -15.132812 12.390625 -15.75 C 11.941406 -16.375 11.210938 -16.6875 10.203125 -16.6875 C 9.253906 -16.6875 8.554688 -16.472656 8.109375 -16.046875 C 7.671875 -15.617188 7.398438 -14.910156 7.296875 -13.921875 L 1.984375 -14.171875 C 2.304688 -16.078125 3.175781 -17.523438 4.59375 -18.515625 C 6.019531 -19.503906 7.957031 -20 10.40625 -20 C 12.894531 -20 14.804688 -19.382812 16.140625 -18.15625 C 17.484375 -16.9375 18.15625 -15.203125 18.15625 -12.953125 L 18.15625 -5.8125 C 18.15625 -4.707031 18.28125 -3.945312 18.53125 -3.53125 C 18.78125 -3.113281 19.195312 -2.90625 19.78125 -2.90625 C 20.164062 -2.90625 20.539062 -2.941406 20.90625 -3.015625 L 20.90625 -0.25 C 20.601562 -0.175781 20.328125 -0.109375 20.078125 -0.046875 C 19.835938 0.00390625 19.597656 0.046875 19.359375 0.078125 C 19.117188 0.117188 18.859375 0.148438 18.578125 0.171875 C 18.304688 0.203125 17.992188 0.21875 17.640625 0.21875 C 16.359375 0.21875 15.410156 -0.09375 14.796875 -0.71875 C 14.179688 -1.351562 13.816406 -2.28125 13.703125 -3.5 L 13.59375 -3.5 C 12.164062 -0.925781 10.007812 0.359375 7.125 0.359375 Z M 13.0625 -9.09375 L 10.453125 -9.046875 C 9.265625 -9.003906 8.421875 -8.875 7.921875 -8.65625 C 7.429688 -8.445312 7.054688 -8.125 6.796875 -7.6875 C 6.535156 -7.257812 6.40625 -6.679688 6.40625 -5.953125 C 6.40625 -5.015625 6.617188 -4.316406 7.046875 -3.859375 C 7.472656 -3.410156 8.046875 -3.1875 8.765625 -3.1875 C 9.554688 -3.1875 10.28125 -3.40625 10.9375 -3.84375 C 11.601562 -4.28125 12.125 -4.878906 12.5 -5.640625 C 12.875 -6.410156 13.0625 -7.226562 13.0625 -8.09375 Z M 13.0625 -9.09375 "/></g></g></g><g fill="#002c55" fill-opacity="1"><g transform="translate(167.970662, 105.635505)"><g><path d="M 2.59375 0 L 2.59375 -26.921875 L 7.6875 -26.921875 L 7.6875 0 Z M 2.59375 0 "/></g></g></g><g fill="#002c55" fill-opacity="1"><g transform="translate(179.667674, 105.635505)"><g><path d="M 7.625 0.328125 C 6.125 0.328125 4.96875 -0.078125 4.15625 -0.890625 C 3.34375 -1.710938 2.9375 -2.953125 2.9375 -4.609375 L 2.9375 -16.1875 L 0.453125 -16.1875 L 0.453125 -19.625 L 3.1875 -19.625 L 4.796875 -24.234375 L 7.984375 -24.234375 L 7.984375 -19.625 L 11.703125 -19.625 L 11.703125 -16.1875 L 7.984375 -16.1875 L 7.984375 -5.984375 C 7.984375 -5.023438 8.164062 -4.316406 8.53125 -3.859375 C 8.894531 -3.410156 9.457031 -3.1875 10.21875 -3.1875 C 10.613281 -3.1875 11.179688 -3.273438 11.921875 -3.453125 L 11.921875 -0.296875 C 10.660156 0.117188 9.226562 0.328125 7.625 0.328125 Z M 7.625 0.328125 "/></g></g></g><g fill="#002c55" fill-opacity="1"><g transform="translate(193.414513, 105.635505)"><g><path d="M 5.140625 7.703125 C 3.910156 7.703125 2.835938 7.625 1.921875 7.46875 L 1.921875 3.84375 C 2.566406 3.9375 3.15625 3.984375 3.6875 3.984375 C 4.40625 3.984375 5.003906 3.867188 5.484375 3.640625 C 5.960938 3.410156 6.390625 3.03125 6.765625 2.5 C 7.148438 1.96875 7.582031 1.066406 8.0625 -0.203125 L 0.296875 -19.625 L 5.671875 -19.625 L 8.765625 -10.4375 C 9.242188 -9.113281 9.851562 -7.09375 10.59375 -4.375 L 11.046875 -6.09375 L 12.234375 -10.359375 L 15.125 -19.625 L 20.46875 -19.625 L 12.703125 1.03125 C 11.660156 3.550781 10.578125 5.289062 9.453125 6.25 C 8.335938 7.21875 6.898438 7.703125 5.140625 7.703125 Z M 5.140625 7.703125 "/></g></g></g><g fill="#c89116" fill-opacity="1"><g transform="translate(236.470113, 79.337897)"><g><path d="M 4.265625 -0.109375 C 4.617188 -0.109375 4.84375 -0.171875 4.9375 -0.296875 C 5.039062 -0.429688 5.09375 -0.65625 5.09375 -0.96875 L 5.09375 -3.09375 L 4.390625 -3.09375 L 4.390625 -3.328125 L 7.546875 -3.328125 L 7.546875 -3.09375 L 7.125 -3.09375 L 7.125 -0.015625 L 6.953125 -0.015625 C 6.828125 -0.191406 6.640625 -0.28125 6.390625 -0.28125 C 6.296875 -0.28125 5.992188 -0.210938 5.484375 -0.078125 C 4.972656 0.046875 4.539062 0.109375 4.1875 0.109375 C 3 0.109375 2.078125 -0.207031 1.421875 -0.84375 C 0.773438 -1.488281 0.453125 -2.453125 0.453125 -3.734375 C 0.453125 -5.023438 0.789062 -6.019531 1.46875 -6.71875 C 2.15625 -7.425781 3.070312 -7.78125 4.21875 -7.78125 C 4.664062 -7.78125 5.113281 -7.722656 5.5625 -7.609375 C 6.007812 -7.492188 6.269531 -7.4375 6.34375 -7.4375 C 6.414062 -7.4375 6.46875 -7.453125 6.5 -7.484375 C 6.539062 -7.515625 6.582031 -7.570312 6.625 -7.65625 L 6.75 -7.65625 L 6.828125 -5.28125 L 6.640625 -5.28125 C 6.285156 -5.988281 5.925781 -6.546875 5.5625 -6.953125 C 5.195312 -7.359375 4.796875 -7.5625 4.359375 -7.5625 C 3.234375 -7.5625 2.671875 -6.46875 2.671875 -4.28125 L 2.671875 -3.421875 C 2.671875 -2.328125 2.804688 -1.5 3.078125 -0.9375 C 3.359375 -0.382812 3.753906 -0.109375 4.265625 -0.109375 Z M 4.265625 -0.109375 "/></g></g></g><g fill="#c89116" fill-opacity="1"><g transform="translate(244.375084, 79.337897)"><g><path d="M 2.734375 -2.5625 L 3.046875 -2.5625 L 3.046875 -3.40625 C 3.046875 -4.101562 3.007812 -4.566406 2.9375 -4.796875 C 2.863281 -5.035156 2.71875 -5.15625 2.5 -5.15625 C 2.363281 -5.15625 2.242188 -5.117188 2.140625 -5.046875 C 2.035156 -4.984375 1.984375 -4.890625 1.984375 -4.765625 C 1.984375 -4.648438 2.003906 -4.53125 2.046875 -4.40625 L 2.3125 -4.40625 C 2.375 -4.25 2.40625 -4.0625 2.40625 -3.84375 C 2.40625 -3.632812 2.3125 -3.453125 2.125 -3.296875 C 1.945312 -3.140625 1.71875 -3.0625 1.4375 -3.0625 C 0.8125 -3.0625 0.5 -3.363281 0.5 -3.96875 C 0.5 -4.863281 1.257812 -5.3125 2.78125 -5.3125 C 3.65625 -5.3125 4.253906 -5.160156 4.578125 -4.859375 C 4.910156 -4.566406 5.078125 -4.03125 5.078125 -3.25 L 5.078125 -1.03125 C 5.078125 -0.644531 5.1875 -0.453125 5.40625 -0.453125 C 5.65625 -0.453125 5.800781 -0.828125 5.84375 -1.578125 L 6 -1.578125 C 5.96875 -0.929688 5.847656 -0.488281 5.640625 -0.25 C 5.429688 -0.0078125 5.085938 0.109375 4.609375 0.109375 C 3.734375 0.109375 3.226562 -0.160156 3.09375 -0.703125 C 3 -0.421875 2.859375 -0.210938 2.671875 -0.078125 C 2.484375 0.046875 2.207031 0.109375 1.84375 0.109375 C 0.757812 0.109375 0.21875 -0.332031 0.21875 -1.21875 C 0.21875 -1.726562 0.421875 -2.078125 0.828125 -2.265625 C 1.242188 -2.460938 1.878906 -2.5625 2.734375 -2.5625 Z M 2.296875 -1.21875 C 2.296875 -0.84375 2.316406 -0.597656 2.359375 -0.484375 C 2.398438 -0.378906 2.472656 -0.328125 2.578125 -0.328125 C 2.691406 -0.328125 2.796875 -0.421875 2.890625 -0.609375 C 2.992188 -0.796875 3.046875 -1.050781 3.046875 -1.375 L 3.046875 -2.390625 L 2.96875 -2.390625 C 2.519531 -2.390625 2.296875 -2.0625 2.296875 -1.40625 Z M 2.296875 -1.21875 "/></g></g></g><g fill="#c89116" fill-opacity="1"><g transform="translate(250.377613, 79.337897)"><g><path d="M 0.046875 -5.015625 L 0.046875 -5.203125 L 3.21875 -5.203125 L 3.21875 -5.015625 L 2.640625 -5.015625 L 3.828125 -1.375 L 5.09375 -5.015625 L 4.359375 -5.015625 L 4.359375 -5.203125 L 5.90625 -5.203125 L 5.90625 -5.015625 L 5.359375 -5.015625 L 3.3125 0.890625 C 3.070312 1.566406 2.800781 2.039062 2.5 2.3125 C 2.207031 2.59375 1.84375 2.734375 1.40625 2.734375 C 0.976562 2.734375 0.640625 2.632812 0.390625 2.4375 C 0.140625 2.238281 0.015625 1.984375 0.015625 1.671875 C 0.015625 1.367188 0.09375 1.140625 0.25 0.984375 C 0.414062 0.828125 0.628906 0.75 0.890625 0.75 C 1.492188 0.75 1.796875 1 1.796875 1.5 C 1.796875 1.601562 1.773438 1.734375 1.734375 1.890625 L 1.359375 1.890625 C 1.296875 2.054688 1.285156 2.191406 1.328125 2.296875 C 1.378906 2.410156 1.476562 2.46875 1.625 2.46875 C 1.925781 2.46875 2.191406 2.316406 2.421875 2.015625 C 2.660156 1.722656 2.882812 1.273438 3.09375 0.671875 L 3.328125 0 L 2.375 0 L 0.5 -5.015625 Z M 0.046875 -5.015625 "/></g></g></g><g fill="#c89116" fill-opacity="1"><g transform="translate(256.194278, 79.337897)"><g><path d="M 3.765625 -4.90625 C 3.492188 -4.90625 3.253906 -4.726562 3.046875 -4.375 C 2.847656 -4.019531 2.75 -3.601562 2.75 -3.125 L 2.75 -0.203125 L 3.515625 -0.203125 L 3.515625 0 L 0.109375 0 L 0.109375 -0.203125 L 0.703125 -0.203125 L 0.703125 -5.015625 L 0.109375 -5.015625 L 0.109375 -5.203125 L 2.75 -5.203125 L 2.75 -4.15625 C 2.84375 -4.53125 3.023438 -4.816406 3.296875 -5.015625 C 3.566406 -5.210938 3.867188 -5.3125 4.203125 -5.3125 C 4.546875 -5.3125 4.828125 -5.210938 5.046875 -5.015625 C 5.265625 -4.828125 5.375 -4.554688 5.375 -4.203125 C 5.375 -3.847656 5.289062 -3.578125 5.125 -3.390625 C 4.96875 -3.203125 4.722656 -3.109375 4.390625 -3.109375 C 4.054688 -3.109375 3.8125 -3.21875 3.65625 -3.4375 C 3.5 -3.65625 3.476562 -3.957031 3.59375 -4.34375 L 3.984375 -4.34375 C 4.171875 -4.71875 4.097656 -4.90625 3.765625 -4.90625 Z M 3.765625 -4.90625 "/></g></g></g><g fill="#c89116" fill-opacity="1"><g transform="translate(261.606395, 79.337897)"><g><path d="M 1.71875 -5.953125 C 1.332031 -5.953125 1.054688 -6.050781 0.890625 -6.25 C 0.722656 -6.445312 0.640625 -6.691406 0.640625 -6.984375 C 0.640625 -7.273438 0.726562 -7.515625 0.90625 -7.703125 C 1.09375 -7.898438 1.367188 -8 1.734375 -8 C 2.097656 -8 2.375 -7.910156 2.5625 -7.734375 C 2.75 -7.566406 2.84375 -7.320312 2.84375 -7 C 2.84375 -6.6875 2.75 -6.429688 2.5625 -6.234375 C 2.382812 -6.046875 2.101562 -5.953125 1.71875 -5.953125 Z M 0.0625 -5.203125 L 2.75 -5.203125 L 2.75 -0.203125 L 3.359375 -0.203125 L 3.359375 0 L 0.109375 0 L 0.109375 -0.203125 L 0.703125 -0.203125 L 0.703125 -5.015625 L 0.0625 -5.015625 Z M 0.0625 -5.203125 "/></g></g></g><g fill="#c89116" fill-opacity="1"><g transform="translate(265.072341, 79.337897)"><g><path d="M 0.109375 -5.203125 L 2.75 -5.203125 L 2.75 -4.203125 C 2.988281 -4.941406 3.515625 -5.3125 4.328125 -5.3125 C 5.148438 -5.3125 5.648438 -4.921875 5.828125 -4.140625 C 6.085938 -4.921875 6.625 -5.3125 7.4375 -5.3125 C 8.507812 -5.3125 9.046875 -4.703125 9.046875 -3.484375 L 9.046875 -0.203125 L 9.65625 -0.203125 L 9.65625 0 L 6.625 0 L 6.625 -0.203125 L 7.015625 -0.203125 L 7.015625 -3.75 C 7.015625 -4.300781 6.96875 -4.625 6.875 -4.71875 C 6.820312 -4.769531 6.757812 -4.796875 6.6875 -4.796875 C 6.476562 -4.796875 6.289062 -4.648438 6.125 -4.359375 C 5.96875 -4.078125 5.890625 -3.71875 5.890625 -3.28125 L 5.890625 -0.203125 L 6.28125 -0.203125 L 6.28125 0 L 3.484375 0 L 3.484375 -0.203125 L 3.859375 -0.203125 L 3.859375 -3.75 C 3.859375 -4.300781 3.8125 -4.625 3.71875 -4.71875 C 3.675781 -4.769531 3.617188 -4.796875 3.546875 -4.796875 C 3.335938 -4.796875 3.148438 -4.640625 2.984375 -4.328125 C 2.828125 -4.015625 2.75 -3.644531 2.75 -3.21875 L 2.75 -0.203125 L 3.140625 -0.203125 L 3.140625 0 L 0.109375 0 L 0.109375 -0.203125 L 0.703125 -0.203125 L 0.703125 -5.015625 L 0.109375 -5.015625 Z M 0.109375 -5.203125 "/></g></g></g><g fill="#c89116" fill-opacity="1"><g transform="translate(274.781359, 79.337897)"><g><path d="M 2.984375 0.109375 C 2.046875 0.109375 1.335938 -0.128906 0.859375 -0.609375 C 0.390625 -1.097656 0.15625 -1.773438 0.15625 -2.640625 C 0.15625 -3.503906 0.421875 -4.164062 0.953125 -4.625 C 1.484375 -5.082031 2.15625 -5.3125 2.96875 -5.3125 C 4.625 -5.3125 5.421875 -4.484375 5.359375 -2.828125 L 2.28125 -2.828125 L 2.28125 -2.390625 C 2.28125 -1.679688 2.367188 -1.144531 2.546875 -0.78125 C 2.734375 -0.414062 3.050781 -0.234375 3.5 -0.234375 C 4.34375 -0.234375 4.894531 -0.679688 5.15625 -1.578125 L 5.359375 -1.546875 C 5.222656 -1.023438 4.972656 -0.617188 4.609375 -0.328125 C 4.242188 -0.0351562 3.703125 0.109375 2.984375 0.109375 Z M 2.28125 -3.046875 L 3.40625 -3.046875 L 3.40625 -3.578125 C 3.40625 -4.171875 3.367188 -4.570312 3.296875 -4.78125 C 3.234375 -5 3.097656 -5.109375 2.890625 -5.109375 C 2.679688 -5.109375 2.523438 -4.992188 2.421875 -4.765625 C 2.328125 -4.535156 2.28125 -4.140625 2.28125 -3.578125 Z M 2.28125 -3.046875 "/></g></g></g><g fill="#c89116" fill-opacity="1"><g transform="translate(280.42309, 79.337897)"><g><path d="M 0.125 -5.203125 L 2.765625 -5.203125 L 2.765625 -4.203125 C 2.878906 -4.535156 3.054688 -4.800781 3.296875 -5 C 3.535156 -5.207031 3.898438 -5.3125 4.390625 -5.3125 C 5.523438 -5.3125 6.09375 -4.703125 6.09375 -3.484375 L 6.09375 -0.203125 L 6.703125 -0.203125 L 6.703125 0 L 3.609375 0 L 3.609375 -0.203125 L 4.0625 -0.203125 L 4.0625 -3.75 C 4.0625 -4.1875 4.03125 -4.46875 3.96875 -4.59375 C 3.90625 -4.726562 3.800781 -4.796875 3.65625 -4.796875 C 3.414062 -4.796875 3.207031 -4.640625 3.03125 -4.328125 C 2.851562 -4.023438 2.765625 -3.65625 2.765625 -3.21875 L 2.765625 -0.203125 L 3.234375 -0.203125 L 3.234375 0 L 0.125 0 L 0.125 -0.203125 L 0.734375 -0.203125 L 0.734375 -5.015625 L 0.125 -5.015625 Z M 0.125 -5.203125 "/></g></g></g><g fill="#c89116" fill-opacity="1"><g transform="translate(287.158178, 79.337897)"><g><path d="M 3.6875 0 L 3.6875 -0.203125 L 4.1875 -0.203125 L 2.953125 -2.734375 L 2.75 -2.671875 L 2.75 -0.203125 L 3.25 -0.203125 L 3.25 0 L 0.109375 0 L 0.109375 -0.203125 L 0.703125 -0.203125 L 0.703125 -8 L 0.0625 -8 L 0.0625 -8.203125 L 2.75 -8.203125 L 2.75 -2.890625 L 2.921875 -2.96875 L 5.375 -5.015625 L 4.359375 -5.015625 L 4.359375 -5.203125 L 6.5 -5.203125 L 6.5 -5.015625 L 5.734375 -5.015625 L 4.4375 -3.90625 L 6.328125 -0.203125 L 6.71875 -0.203125 L 6.71875 0 Z M 3.6875 0 "/></g></g></g><g fill="#c89116" fill-opacity="1"><g transform="translate(293.936994, 79.337897)"><g><path d="M 6.5 0 L 4.015625 0 L 3.890625 -0.796875 C 3.773438 -0.503906 3.601562 -0.28125 3.375 -0.125 C 3.144531 0.03125 2.800781 0.109375 2.34375 0.109375 C 1.21875 0.109375 0.65625 -0.5 0.65625 -1.71875 L 0.65625 -5.015625 L 0.046875 -5.015625 L 0.046875 -5.203125 L 2.6875 -5.203125 L 2.6875 -1.453125 C 2.6875 -1.015625 2.71875 -0.722656 2.78125 -0.578125 C 2.84375 -0.441406 2.96875 -0.375 3.15625 -0.375 C 3.34375 -0.375 3.507812 -0.488281 3.65625 -0.71875 C 3.800781 -0.945312 3.875 -1.257812 3.875 -1.65625 L 3.875 -5.015625 L 3.375 -5.015625 L 3.375 -5.203125 L 5.90625 -5.203125 L 5.90625 -0.203125 L 6.5 -0.203125 Z M 6.5 0 "/></g></g></g><g fill="#c89116" fill-opacity="1"><g transform="translate(300.551804, 79.337897)"><g><path d="M 0.0625 -8.203125 L 2.75 -8.203125 L 2.75 -0.203125 L 3.359375 -0.203125 L 3.359375 0 L 0.109375 0 L 0.109375 -0.203125 L 0.703125 -0.203125 L 0.703125 -8 L 0.0625 -8 Z M 0.0625 -8.203125 "/></g></g></g><g fill="#c89116" fill-opacity="1"><g transform="translate(304.00681, 79.337897)"><g><path d="M 6.5 0 L 4.015625 0 L 3.890625 -0.796875 C 3.773438 -0.503906 3.601562 -0.28125 3.375 -0.125 C 3.144531 0.03125 2.800781 0.109375 2.34375 0.109375 C 1.21875 0.109375 0.65625 -0.5 0.65625 -1.71875 L 0.65625 -5.015625 L 0.046875 -5.015625 L 0.046875 -5.203125 L 2.6875 -5.203125 L 2.6875 -1.453125 C 2.6875 -1.015625 2.71875 -0.722656 2.78125 -0.578125 C 2.84375 -0.441406 2.96875 -0.375 3.15625 -0.375 C 3.34375 -0.375 3.507812 -0.488281 3.65625 -0.71875 C 3.800781 -0.945312 3.875 -1.257812 3.875 -1.65625 L 3.875 -5.015625 L 3.375 -5.015625 L 3.375 -5.203125 L 5.90625 -5.203125 L 5.90625 -0.203125 L 6.5 -0.203125 Z M 3.625 -6.34375 C 3.5 -6.5 3.4375 -6.691406 3.4375 -6.921875 C 3.4375 -7.148438 3.503906 -7.335938 3.640625 -7.484375 C 3.785156 -7.640625 3.984375 -7.71875 4.234375 -7.71875 C 4.484375 -7.71875 4.679688 -7.648438 4.828125 -7.515625 C 4.984375 -7.378906 5.0625 -7.179688 5.0625 -6.921875 C 5.0625 -6.671875 4.988281 -6.472656 4.84375 -6.328125 C 4.707031 -6.179688 4.503906 -6.109375 4.234375 -6.109375 C 3.960938 -6.109375 3.757812 -6.1875 3.625 -6.34375 Z M 1.515625 -6.34375 C 1.390625 -6.5 1.328125 -6.691406 1.328125 -6.921875 C 1.328125 -7.148438 1.394531 -7.335938 1.53125 -7.484375 C 1.675781 -7.640625 1.875 -7.71875 2.125 -7.71875 C 2.375 -7.71875 2.570312 -7.648438 2.71875 -7.515625 C 2.875 -7.378906 2.953125 -7.179688 2.953125 -6.921875 C 2.953125 -6.671875 2.878906 -6.472656 2.734375 -6.328125 C 2.597656 -6.179688 2.394531 -6.109375 2.125 -6.109375 C 1.851562 -6.109375 1.648438 -6.1875 1.515625 -6.34375 Z M 1.515625 -6.34375 "/></g></g></g><g fill="#c89116" fill-opacity="1"><g transform="translate(310.62162, 79.337897)"><g><path d="M 0.125 -5.203125 L 2.765625 -5.203125 L 2.765625 -4.203125 C 2.878906 -4.535156 3.054688 -4.800781 3.296875 -5 C 3.535156 -5.207031 3.898438 -5.3125 4.390625 -5.3125 C 5.523438 -5.3125 6.09375 -4.703125 6.09375 -3.484375 L 6.09375 -0.203125 L 6.703125 -0.203125 L 6.703125 0 L 3.609375 0 L 3.609375 -0.203125 L 4.0625 -0.203125 L 4.0625 -3.75 C 4.0625 -4.1875 4.03125 -4.46875 3.96875 -4.59375 C 3.90625 -4.726562 3.800781 -4.796875 3.65625 -4.796875 C 3.414062 -4.796875 3.207031 -4.640625 3.03125 -4.328125 C 2.851562 -4.023438 2.765625 -3.65625 2.765625 -3.21875 L 2.765625 -0.203125 L 3.234375 -0.203125 L 3.234375 0 L 0.125 0 L 0.125 -0.203125 L 0.734375 -0.203125 L 0.734375 -5.015625 L 0.125 -5.015625 Z M 0.125 -5.203125 "/></g></g></g><g fill="#c89116" fill-opacity="1"><g transform="translate(317.356708, 79.337897)"><g/></g></g><g fill="#c89116" fill-opacity="1"><g transform="translate(319.324749, 79.337897)"><g><path d="M 6.109375 -7.65625 L 6.109375 -7.421875 L 2.875 -0.25 L 3.25 -0.25 C 3.90625 -0.25 4.484375 -0.457031 4.984375 -0.875 C 5.484375 -1.300781 5.84375 -1.898438 6.0625 -2.671875 L 6.25 -2.671875 L 6.125 0 L 0.53125 0 L 0.53125 -0.203125 L 3.796875 -7.421875 L 3.34375 -7.421875 C 2.695312 -7.421875 2.203125 -7.273438 1.859375 -6.984375 C 1.523438 -6.703125 1.148438 -6.117188 0.734375 -5.234375 L 0.53125 -5.234375 L 0.703125 -7.65625 Z M 6.109375 -7.65625 "/></g></g></g><g fill="#c89116" fill-opacity="1"><g transform="translate(326.016097, 79.337897)"><g><path d="M 1.71875 -5.953125 C 1.332031 -5.953125 1.054688 -6.050781 0.890625 -6.25 C 0.722656 -6.445312 0.640625 -6.691406 0.640625 -6.984375 C 0.640625 -7.273438 0.726562 -7.515625 0.90625 -7.703125 C 1.09375 -7.898438 1.367188 -8 1.734375 -8 C 2.097656 -8 2.375 -7.910156 2.5625 -7.734375 C 2.75 -7.566406 2.84375 -7.320312 2.84375 -7 C 2.84375 -6.6875 2.75 -6.429688 2.5625 -6.234375 C 2.382812 -6.046875 2.101562 -5.953125 1.71875 -5.953125 Z M 0.0625 -5.203125 L 2.75 -5.203125 L 2.75 -0.203125 L 3.359375 -0.203125 L 3.359375 0 L 0.109375 0 L 0.109375 -0.203125 L 0.703125 -0.203125 L 0.703125 -5.015625 L 0.0625 -5.015625 Z M 0.0625 -5.203125 "/></g></g></g><g fill="#c89116" fill-opacity="1"><g transform="translate(329.482043, 79.337897)"><g><path d="M 3.765625 -4.90625 C 3.492188 -4.90625 3.253906 -4.726562 3.046875 -4.375 C 2.847656 -4.019531 2.75 -3.601562 2.75 -3.125 L 2.75 -0.203125 L 3.515625 -0.203125 L 3.515625 0 L 0.109375 0 L 0.109375 -0.203125 L 0.703125 -0.203125 L 0.703125 -5.015625 L 0.109375 -5.015625 L 0.109375 -5.203125 L 2.75 -5.203125 L 2.75 -4.15625 C 2.84375 -4.53125 3.023438 -4.816406 3.296875 -5.015625 C 3.566406 -5.210938 3.867188 -5.3125 4.203125 -5.3125 C 4.546875 -5.3125 4.828125 -5.210938 5.046875 -5.015625 C 5.265625 -4.828125 5.375 -4.554688 5.375 -4.203125 C 5.375 -3.847656 5.289062 -3.578125 5.125 -3.390625 C 4.96875 -3.203125 4.722656 -3.109375 4.390625 -3.109375 C 4.054688 -3.109375 3.8125 -3.21875 3.65625 -3.4375 C 3.5 -3.65625 3.476562 -3.957031 3.59375 -4.34375 L 3.984375 -4.34375 C 4.171875 -4.71875 4.097656 -4.90625 3.765625 -4.90625 Z M 3.765625 -4.90625 "/></g></g></g><g fill="#c89116" fill-opacity="1"><g transform="translate(334.89416, 79.337897)"><g><path d="M 0 -5.015625 L 0 -5.203125 L 3.265625 -5.203125 L 3.265625 -5.015625 L 2.578125 -5.015625 L 3.890625 -1.375 L 5.078125 -5.015625 L 4.34375 -5.015625 L 4.34375 -5.203125 L 5.8125 -5.203125 L 5.8125 -5.015625 L 5.34375 -5.015625 L 3.71875 0 L 2.46875 0 L 0.453125 -5.015625 Z M 0 -5.015625 "/></g></g></g><g fill="#c89116" fill-opacity="1"><g transform="translate(340.710825, 79.337897)"><g><path d="M 2.984375 0.109375 C 2.046875 0.109375 1.335938 -0.128906 0.859375 -0.609375 C 0.390625 -1.097656 0.15625 -1.773438 0.15625 -2.640625 C 0.15625 -3.503906 0.421875 -4.164062 0.953125 -4.625 C 1.484375 -5.082031 2.15625 -5.3125 2.96875 -5.3125 C 4.625 -5.3125 5.421875 -4.484375 5.359375 -2.828125 L 2.28125 -2.828125 L 2.28125 -2.390625 C 2.28125 -1.679688 2.367188 -1.144531 2.546875 -0.78125 C 2.734375 -0.414062 3.050781 -0.234375 3.5 -0.234375 C 4.34375 -0.234375 4.894531 -0.679688 5.15625 -1.578125 L 5.359375 -1.546875 C 5.222656 -1.023438 4.972656 -0.617188 4.609375 -0.328125 C 4.242188 -0.0351562 3.703125 0.109375 2.984375 0.109375 Z M 2.28125 -3.046875 L 3.40625 -3.046875 L 3.40625 -3.578125 C 3.40625 -4.171875 3.367188 -4.570312 3.296875 -4.78125 C 3.234375 -5 3.097656 -5.109375 2.890625 -5.109375 C 2.679688 -5.109375 2.523438 -4.992188 2.421875 -4.765625 C 2.328125 -4.535156 2.28125 -4.140625 2.28125 -3.578125 Z M 2.28125 -3.046875 "/></g></g></g><g fill="#c89116" fill-opacity="1"><g transform="translate(346.352556, 79.337897)"><g><path d="M 0.359375 0.109375 L 0.359375 -1.84375 L 0.484375 -1.84375 C 0.679688 -1.207031 0.9375 -0.757812 1.25 -0.5 C 1.570312 -0.25 1.972656 -0.125 2.453125 -0.125 C 3.203125 -0.125 3.578125 -0.363281 3.578125 -0.84375 C 3.578125 -1.039062 3.484375 -1.191406 3.296875 -1.296875 C 3.015625 -1.460938 2.648438 -1.585938 2.203125 -1.671875 C 1.710938 -1.804688 1.300781 -1.984375 0.96875 -2.203125 C 0.5625 -2.460938 0.359375 -2.875 0.359375 -3.4375 C 0.359375 -4.007812 0.53125 -4.460938 0.875 -4.796875 C 1.226562 -5.140625 1.695312 -5.3125 2.28125 -5.3125 C 2.644531 -5.3125 3.015625 -5.226562 3.390625 -5.0625 C 3.523438 -5 3.628906 -4.96875 3.703125 -4.96875 C 3.773438 -4.96875 3.835938 -4.992188 3.890625 -5.046875 C 3.941406 -5.097656 4.003906 -5.195312 4.078125 -5.34375 L 4.203125 -5.34375 L 4.203125 -3.65625 L 4.0625 -3.65625 C 3.695312 -4.601562 3.125 -5.078125 2.34375 -5.078125 C 2 -5.078125 1.742188 -5.015625 1.578125 -4.890625 C 1.410156 -4.773438 1.328125 -4.628906 1.328125 -4.453125 C 1.328125 -4.335938 1.347656 -4.25 1.390625 -4.1875 C 1.441406 -4.125 1.484375 -4.078125 1.515625 -4.046875 C 1.546875 -4.023438 1.59375 -4 1.65625 -3.96875 C 1.726562 -3.9375 1.785156 -3.910156 1.828125 -3.890625 C 1.867188 -3.867188 1.9375 -3.84375 2.03125 -3.8125 C 2.125 -3.78125 2.191406 -3.765625 2.234375 -3.765625 C 2.722656 -3.640625 3.078125 -3.53125 3.296875 -3.4375 C 3.515625 -3.34375 3.722656 -3.234375 3.921875 -3.109375 C 4.328125 -2.828125 4.53125 -2.378906 4.53125 -1.765625 C 4.53125 -1.148438 4.347656 -0.679688 3.984375 -0.359375 C 3.617188 -0.046875 3.117188 0.109375 2.484375 0.109375 C 2.023438 0.109375 1.585938 0.00390625 1.171875 -0.203125 C 1.078125 -0.265625 1.007812 -0.296875 0.96875 -0.296875 C 0.800781 -0.296875 0.640625 -0.160156 0.484375 0.109375 Z M 0.359375 0.109375 "/></g></g></g><g fill="#c89116" fill-opacity="1"><g transform="translate(351.097734, 79.337897)"><g><path d="M 1.71875 -5.953125 C 1.332031 -5.953125 1.054688 -6.050781 0.890625 -6.25 C 0.722656 -6.445312 0.640625 -6.691406 0.640625 -6.984375 C 0.640625 -7.273438 0.726562 -7.515625 0.90625 -7.703125 C 1.09375 -7.898438 1.367188 -8 1.734375 -8 C 2.097656 -8 2.375 -7.910156 2.5625 -7.734375 C 2.75 -7.566406 2.84375 -7.320312 2.84375 -7 C 2.84375 -6.6875 2.75 -6.429688 2.5625 -6.234375 C 2.382812 -6.046875 2.101562 -5.953125 1.71875 -5.953125 Z M 0.0625 -5.203125 L 2.75 -5.203125 L 2.75 -0.203125 L 3.359375 -0.203125 L 3.359375 0 L 0.109375 0 L 0.109375 -0.203125 L 0.703125 -0.203125 L 0.703125 -5.015625 L 0.0625 -5.015625 Z M 0.0625 -5.203125 "/></g></g></g></svg>